<svg width="361" height="123" viewBox="0 0 361 123" fill="none" xmlns="http://www.w3.org/2000/svg">
<path d="M87.8282 55.4206C87.8282 54.4116 87.9137 48.1697 87.9137 41.0043C87.9137 34.2322 87.6914 29.0163 87.6914 27.9219C87.6914 27.2891 88.3584 27.1523 90.8214 27.1523C91.1122 27.1523 91.2662 27.2891 91.2662 27.5969C91.2662 28.8282 91.1807 34.1467 91.1807 40.9701C91.1807 47.7934 91.2662 54.2064 91.2662 55.1298C91.2662 55.6771 90.5991 55.9165 88.3243 55.9165C87.9993 55.9165 87.8453 55.6942 87.8453 55.4206H87.8282Z" fill="#FC8031"/>
<path d="M99.4421 51.4189V39.2086C99.4421 34.369 99.271 29.2215 99.271 26.5025C99.271 25.9381 99.8867 25.75 102.042 25.75C102.367 25.75 102.504 25.921 102.504 26.1946C102.504 28.2981 102.384 32.8128 102.384 39.1744C102.384 43.0393 102.418 46.9213 102.418 50.8717C102.418 52.445 102.983 53.129 104.762 53.129C106.01 53.129 106.934 52.7699 107.464 52.7699C107.96 52.7699 108.063 53.3171 108.063 54.7707C108.063 55.0786 107.96 55.3864 107.652 55.489C106.335 55.8823 105.275 55.9849 104.026 55.9849C100.981 55.9849 99.4421 54.6339 99.4421 51.4018V51.4189Z" fill="#FC8031"/>
<path d="M112.715 51.4189V39.2086C112.715 34.369 112.544 29.2215 112.544 26.5025C112.544 25.9381 113.16 25.75 115.315 25.75C115.64 25.75 115.777 25.921 115.777 26.1946C115.777 28.2981 115.657 32.8128 115.657 39.1744C115.657 43.0393 115.691 46.9213 115.691 50.8717C115.691 52.445 116.256 53.129 118.034 53.129C119.283 53.129 120.207 52.7699 120.737 52.7699C121.233 52.7699 121.336 53.3171 121.336 54.7707C121.336 55.0786 121.233 55.3864 120.925 55.489C119.608 55.8823 118.548 55.9849 117.299 55.9849C114.254 55.9849 112.715 54.6339 112.715 51.4018V51.4189Z" fill="#FC8031"/>
<path d="M125.834 49.8627C125.834 43.5694 125.68 39.5336 125.68 35.72C125.68 35.1043 126.057 34.9675 128.502 34.9675C128.793 34.9675 128.93 35.1214 128.93 35.4293C128.93 39.4652 128.93 43.9115 128.93 48.6485C128.93 51.8635 130.846 53.2829 133.942 53.2829C136.559 53.2829 138.508 52.4449 141.365 50.6493L141.433 52.5818C138.833 54.7365 136.08 56.0362 132.488 56.0362C128.571 56.0362 125.834 54.0354 125.834 49.8969V49.8627ZM140.219 55.3864C140.219 52.2226 140.287 48.8879 140.287 45.5361C140.287 39.8756 140.099 37.7208 140.099 35.6858C140.099 35.1214 140.458 34.9504 142.87 34.9504C143.161 34.9504 143.298 35.1385 143.298 35.4122C143.298 38.6101 143.298 42.1329 143.298 45.5361C143.298 48.9392 143.366 52.0345 143.366 55.0956C143.366 55.6258 142.921 55.8823 140.715 55.8823C140.407 55.8823 140.219 55.6942 140.219 55.3692V55.3864Z" fill="#FC8031"/>
<path d="M149.558 54.822C149.25 54.7365 149.199 54.48 149.199 54.2748C149.199 53.3 149.712 52.2226 150.054 52.2226C150.362 52.2226 152.774 53.5736 156.622 53.5736C159.444 53.5736 161.36 52.3594 161.36 50.5125C161.36 48.6656 160.505 47.7934 156.451 46.5792C151.439 45.1427 149.763 43.6207 149.763 40.4057C149.763 37.1907 152.124 34.5913 157.46 34.5913C159.786 34.5913 161.377 35.0359 163.361 35.7542C163.618 35.8397 163.703 36.0962 163.703 36.3356C163.703 37.3104 163.327 38.2681 162.848 38.2681C162.284 38.2681 160.556 37.2249 157.272 37.2249C154.245 37.2249 152.688 38.3365 152.688 40.2518C152.688 41.9961 153.749 42.7315 157.717 43.9115C162.557 45.3309 164.302 46.9042 164.302 50.2731C164.302 53.8644 161.582 56.2585 156.725 56.2585C153.851 56.2585 151.747 55.7968 149.575 54.8391L149.558 54.822Z" fill="#FC8031"/>
<path d="M167.757 37.6182C167.757 36.0107 167.877 35.2754 168.373 35.2754H182.569C182.792 35.2754 182.946 35.4806 182.946 35.7713C182.946 37.1052 182.86 38.08 182.364 38.08C181.167 38.08 178.772 37.9774 174.017 37.9774C171.058 37.9774 169.142 38.08 168.15 38.08C167.928 38.08 167.774 37.8577 167.774 37.6182H167.757ZM172.067 50.8204C172.067 43.8773 172.136 37.4814 172.136 30.5725C172.136 29.9911 172.751 29.8201 174.906 29.8201C175.18 29.8201 175.334 30.0253 175.334 30.2818C175.334 31.6499 175.214 33.8389 175.214 36.4725C175.214 41.0214 175.077 45.5532 175.077 50.1534C175.077 52.2056 176.087 53.0777 178.515 53.0777C180.192 53.0777 181.851 52.4963 182.364 52.4963C182.792 52.4963 183.014 53.6421 183.014 54.6168C183.014 54.9418 182.894 55.1128 182.415 55.3009C181.013 55.8139 179.285 56.002 177.729 56.002C173.949 56.002 172.05 54.4458 172.05 50.8204H172.067Z" fill="#FC8031"/>
<path d="M188.624 55.3864C188.624 52.2226 188.693 48.8879 188.693 45.5361C188.693 39.6361 188.505 37.7208 188.505 35.6858C188.505 35.1214 188.847 34.9504 191.276 34.9504C191.566 34.9504 191.703 35.1385 191.703 35.4122C191.703 38.7127 191.703 42.1329 191.703 45.5361C191.703 48.9392 191.772 52.0345 191.772 55.0956C191.772 55.6258 191.31 55.8823 189.137 55.8823C188.83 55.8823 188.641 55.6942 188.641 55.3692L188.624 55.3864ZM198.562 34.711C200.324 34.711 200.597 34.9162 200.597 35.3951C200.597 36.8829 200.512 37.7721 199.896 37.7721C199.742 37.7721 199.451 37.7037 198.904 37.7037C195.859 37.7037 193.345 38.8666 191.258 41.637L191.207 39.8072C192.439 37.0368 195.432 34.711 198.562 34.711Z" fill="#FC8031"/>
<path d="M203.659 50.9571C203.659 46.374 207.815 44.1338 218.232 42.6118L218.266 44.7836C209.32 45.9465 206.567 47.6737 206.567 50.3586C206.567 52.5305 208.192 53.4539 210.757 53.4539C213.323 53.4539 215.41 52.3423 218.01 50.427L218.198 52.3595C215.769 54.3945 213.323 56.0533 209.816 56.0533C206.31 56.0533 203.642 54.4971 203.642 50.9571H203.659ZM217.479 53.1974L217.394 51.9148C217.394 49.1444 217.394 45.8097 217.394 41.8422C217.394 38.422 215.889 37.3446 212.639 37.3446C208.551 37.3446 205.626 39.431 205.079 39.431C204.719 39.431 204.463 38.7469 204.463 37.4301C204.463 37.1736 204.531 36.9855 204.788 36.8145C207.063 35.4635 209.919 34.5913 213.083 34.5913C217.804 34.5913 220.336 36.3527 220.336 40.8504C220.336 45.1086 220.387 49.7088 220.472 54.2235L219.498 53.3684C221.294 53.3 222.953 52.6844 223.278 52.6844C223.62 52.6844 223.928 53.5907 223.928 54.7023C223.928 54.8904 223.842 55.1128 223.449 55.2838C222.183 55.831 220.969 56.0191 219.959 56.0191C218.232 56.0191 217.445 54.9759 217.445 53.1974H217.479Z" fill="#FC8031"/>
<path d="M226.271 37.6182C226.271 36.0107 226.391 35.2754 226.887 35.2754H241.083C241.306 35.2754 241.46 35.4806 241.46 35.7713C241.46 37.1052 241.374 38.08 240.878 38.08C239.681 38.08 237.286 37.9774 232.531 37.9774C229.572 37.9774 227.657 38.08 226.664 38.08C226.442 38.08 226.288 37.8577 226.288 37.6182H226.271ZM230.581 50.8204C230.581 43.8773 230.65 37.4814 230.65 30.5725C230.65 29.9911 231.265 29.8201 233.421 29.8201C233.694 29.8201 233.848 30.0253 233.848 30.2818C233.848 31.6499 233.728 33.8389 233.728 36.4725C233.728 41.0214 233.592 45.5532 233.592 50.1534C233.592 52.2056 234.601 53.0777 237.03 53.0777C238.706 53.0777 240.365 52.4963 240.878 52.4963C241.306 52.4963 241.528 53.6421 241.528 54.6168C241.528 54.9418 241.408 55.1128 240.929 55.3009C239.527 55.8139 237.799 56.002 236.243 56.002C232.463 56.002 230.564 54.4458 230.564 50.8204H230.581Z" fill="#FC8031"/>
<path d="M246.471 29.478C246.471 28.0928 247.207 27.2891 248.438 27.2891C249.824 27.2891 250.679 27.8705 250.679 29.0847C250.679 30.2989 249.858 31.2395 248.643 31.2395C247.258 31.2395 246.471 30.5896 246.471 29.461V29.478ZM247.087 55.3864C247.087 52.2226 247.155 48.8879 247.155 45.5361C247.155 39.6362 246.967 37.7208 246.967 35.6858C246.967 35.1214 247.309 34.9504 249.755 34.9504C250.046 34.9504 250.183 35.1385 250.183 35.4122C250.183 38.6101 250.183 42.1329 250.183 45.5361C250.183 48.9392 250.217 52.0345 250.217 55.0957C250.217 55.6258 249.789 55.8823 247.566 55.8823C247.258 55.8823 247.07 55.6942 247.07 55.3693L247.087 55.3864Z" fill="#FC8031"/>
<path d="M256.221 45.8952C256.221 38.3536 260.48 34.5913 266.535 34.5913C272.59 34.5913 276.216 37.9773 276.216 44.9033C276.216 52.5134 272.025 56.2585 265.97 56.2585C259.915 56.2585 256.238 52.8383 256.238 45.9123L256.221 45.8952ZM273.086 45.3651C273.086 39.3796 270.281 37.1394 266.193 37.1394C262.105 37.1394 259.317 39.7217 259.317 45.3479C259.317 51.436 262.241 53.6078 266.312 53.6078C270.383 53.6078 273.086 51.0085 273.086 45.3651Z" fill="#FC8031"/>
<path d="M282.442 55.3864C282.442 52.2226 282.51 48.8879 282.51 45.5361C282.51 39.6361 282.322 37.7208 282.322 35.6858C282.322 35.1214 282.664 34.9504 285.093 34.9504C285.384 34.9504 285.521 35.1385 285.521 35.4122C285.521 38.3707 285.521 42.1329 285.521 45.5361C285.521 48.9392 285.589 52.0345 285.589 55.0956C285.589 55.6258 285.11 55.8823 282.938 55.8823C282.63 55.8823 282.442 55.6942 282.442 55.3692V55.3864ZM297.203 55.3864C297.203 51.7951 297.203 46.9384 297.203 42.4407C297.203 38.9008 295.424 37.6011 292.345 37.6011C289.797 37.6011 287.813 38.3365 285.007 40.1663L284.956 38.2168C287.436 36.062 290.224 34.8136 293.748 34.8136C297.665 34.8136 300.299 36.8145 300.299 40.953C300.299 43.1419 300.333 45.4677 300.333 47.725C300.333 50.427 300.487 53.1119 300.487 55.1127C300.487 55.6258 299.974 55.8994 297.716 55.8994C297.391 55.8994 297.203 55.7113 297.203 55.3864Z" fill="#FC8031"/>
<path d="M318.344 0.75H41.8005C19.1372 0.75 0.75 19.1167 0.75 41.7929C0.75 64.452 19.1201 82.8357 41.8005 82.8357H197.485V122.186L241.477 82.8357H318.361C341.024 82.8357 359.412 64.4691 359.412 41.7929C359.412 19.1338 341.042 0.75 318.361 0.75H318.344Z" stroke="#FC8031" stroke-width="1.5" stroke-linejoin="round"/>
</svg>
