<svg width="1440" height="1052" viewBox="0 0 1440 1052" fill="none" xmlns="http://www.w3.org/2000/svg">
<g clip-path="url(#clip0_61_1199)">
<path d="M1440 0H0V1051.78H1440V0Z" fill="#FBF5E9"/>
<g opacity="0.15">
<path d="M68.5625 0H0V61.8413H68.5625V0Z" stroke="#FC8031" stroke-width="0.66" stroke-miterlimit="10"/>
<path d="M137.125 0H68.5625V61.8413H137.125V0Z" stroke="#FC8031" stroke-width="0.66" stroke-miterlimit="10"/>
<path d="M205.687 0H137.125V61.8413H205.687V0Z" stroke="#FC8031" stroke-width="0.66" stroke-miterlimit="10"/>
<path d="M274.25 0H205.687V61.8413H274.25V0Z" stroke="#FC8031" stroke-width="0.66" stroke-miterlimit="10"/>
<path d="M342.812 0H274.25V61.8413H342.812V0Z" stroke="#FC8031" stroke-width="0.66" stroke-miterlimit="10"/>
<path d="M411.375 0H342.812V61.8413H411.375V0Z" stroke="#FC8031" stroke-width="0.66" stroke-miterlimit="10"/>
<path d="M479.937 0H411.375V61.8413H479.937V0Z" stroke="#FC8031" stroke-width="0.66" stroke-miterlimit="10"/>
<path d="M548.5 0H479.937V61.8413H548.5V0Z" stroke="#FC8031" stroke-width="0.66" stroke-miterlimit="10"/>
<path d="M617.062 0H548.5V61.8413H617.062V0Z" stroke="#FC8031" stroke-width="0.66" stroke-miterlimit="10"/>
<path d="M685.625 0H617.062V61.8413H685.625V0Z" stroke="#FC8031" stroke-width="0.66" stroke-miterlimit="10"/>
<path d="M754.187 0H685.625V61.8413H754.187V0Z" stroke="#FC8031" stroke-width="0.66" stroke-miterlimit="10"/>
<path d="M822.75 0H754.187V61.8413H822.75V0Z" stroke="#FC8031" stroke-width="0.66" stroke-miterlimit="10"/>
<path d="M891.312 0H822.75V61.8413H891.312V0Z" stroke="#FC8031" stroke-width="0.66" stroke-miterlimit="10"/>
<path d="M959.875 0H891.312V61.8413H959.875V0Z" stroke="#FC8031" stroke-width="0.66" stroke-miterlimit="10"/>
<path d="M1028.44 0H959.875V61.8413H1028.44V0Z" stroke="#FC8031" stroke-width="0.66" stroke-miterlimit="10"/>
<path d="M1097 0H1028.44V61.8413H1097V0Z" stroke="#FC8031" stroke-width="0.66" stroke-miterlimit="10"/>
<path d="M1165.56 0H1097V61.8413H1165.56V0Z" stroke="#FC8031" stroke-width="0.66" stroke-miterlimit="10"/>
<path d="M1234.12 0H1165.56V61.8413H1234.12V0Z" stroke="#FC8031" stroke-width="0.66" stroke-miterlimit="10"/>
<path d="M1302.69 0H1234.12V61.8413H1302.69V0Z" stroke="#FC8031" stroke-width="0.66" stroke-miterlimit="10"/>
<path d="M1371.25 0H1302.69V61.8413H1371.25V0Z" stroke="#FC8031" stroke-width="0.66" stroke-miterlimit="10"/>
<path d="M1439.81 0H1371.25V61.8413H1439.81V0Z" stroke="#FC8031" stroke-width="0.66" stroke-miterlimit="10"/>
<path d="M68.5625 61.8413H0V123.683H68.5625V61.8413Z" stroke="#FC8031" stroke-width="0.66" stroke-miterlimit="10"/>
<path d="M137.125 61.8413H68.5625V123.683H137.125V61.8413Z" stroke="#FC8031" stroke-width="0.66" stroke-miterlimit="10"/>
<path d="M205.687 61.8413H137.125V123.683H205.687V61.8413Z" stroke="#FC8031" stroke-width="0.66" stroke-miterlimit="10"/>
<path d="M274.25 61.8413H205.687V123.683H274.25V61.8413Z" stroke="#FC8031" stroke-width="0.66" stroke-miterlimit="10"/>
<path d="M342.812 61.8413H274.25V123.683H342.812V61.8413Z" stroke="#FC8031" stroke-width="0.66" stroke-miterlimit="10"/>
<path d="M411.375 61.8413H342.812V123.683H411.375V61.8413Z" stroke="#FC8031" stroke-width="0.66" stroke-miterlimit="10"/>
<path d="M479.937 61.8413H411.375V123.683H479.937V61.8413Z" stroke="#FC8031" stroke-width="0.66" stroke-miterlimit="10"/>
<path d="M548.5 61.8413H479.937V123.683H548.5V61.8413Z" stroke="#FC8031" stroke-width="0.66" stroke-miterlimit="10"/>
<path d="M617.062 61.8413H548.5V123.683H617.062V61.8413Z" stroke="#FC8031" stroke-width="0.66" stroke-miterlimit="10"/>
<path d="M685.625 61.8413H617.062V123.683H685.625V61.8413Z" stroke="#FC8031" stroke-width="0.66" stroke-miterlimit="10"/>
<path d="M754.187 61.8413H685.625V123.683H754.187V61.8413Z" stroke="#FC8031" stroke-width="0.66" stroke-miterlimit="10"/>
<path d="M822.75 61.8413H754.187V123.683H822.75V61.8413Z" stroke="#FC8031" stroke-width="0.66" stroke-miterlimit="10"/>
<path d="M891.312 61.8413H822.75V123.683H891.312V61.8413Z" stroke="#FC8031" stroke-width="0.66" stroke-miterlimit="10"/>
<path d="M959.875 61.8413H891.312V123.683H959.875V61.8413Z" stroke="#FC8031" stroke-width="0.66" stroke-miterlimit="10"/>
<path d="M1028.44 61.8413H959.875V123.683H1028.44V61.8413Z" stroke="#FC8031" stroke-width="0.66" stroke-miterlimit="10"/>
<path d="M1097 61.8413H1028.44V123.683H1097V61.8413Z" stroke="#FC8031" stroke-width="0.66" stroke-miterlimit="10"/>
<path d="M1165.56 61.8413H1097V123.683H1165.56V61.8413Z" stroke="#FC8031" stroke-width="0.66" stroke-miterlimit="10"/>
<path d="M1234.12 61.8413H1165.56V123.683H1234.12V61.8413Z" stroke="#FC8031" stroke-width="0.66" stroke-miterlimit="10"/>
<path d="M1302.69 61.8413H1234.12V123.683H1302.69V61.8413Z" stroke="#FC8031" stroke-width="0.66" stroke-miterlimit="10"/>
<path d="M1371.25 61.8413H1302.69V123.683H1371.25V61.8413Z" stroke="#FC8031" stroke-width="0.66" stroke-miterlimit="10"/>
<path d="M1439.81 61.8413H1371.25V123.683H1439.81V61.8413Z" stroke="#FC8031" stroke-width="0.66" stroke-miterlimit="10"/>
<path d="M68.5625 123.683H0V185.524H68.5625V123.683Z" stroke="#FC8031" stroke-width="0.66" stroke-miterlimit="10"/>
<path d="M137.125 123.683H68.5625V185.524H137.125V123.683Z" stroke="#FC8031" stroke-width="0.66" stroke-miterlimit="10"/>
<path d="M205.687 123.683H137.125V185.524H205.687V123.683Z" stroke="#FC8031" stroke-width="0.66" stroke-miterlimit="10"/>
<path d="M274.25 123.683H205.687V185.524H274.25V123.683Z" stroke="#FC8031" stroke-width="0.66" stroke-miterlimit="10"/>
<path d="M342.812 123.683H274.25V185.524H342.812V123.683Z" stroke="#FC8031" stroke-width="0.66" stroke-miterlimit="10"/>
<path d="M411.375 123.683H342.812V185.524H411.375V123.683Z" stroke="#FC8031" stroke-width="0.66" stroke-miterlimit="10"/>
<path d="M479.937 123.683H411.375V185.524H479.937V123.683Z" stroke="#FC8031" stroke-width="0.66" stroke-miterlimit="10"/>
<path d="M548.5 123.683H479.937V185.524H548.5V123.683Z" stroke="#FC8031" stroke-width="0.66" stroke-miterlimit="10"/>
<path d="M617.062 123.683H548.5V185.524H617.062V123.683Z" stroke="#FC8031" stroke-width="0.66" stroke-miterlimit="10"/>
<path d="M685.625 123.683H617.062V185.524H685.625V123.683Z" stroke="#FC8031" stroke-width="0.66" stroke-miterlimit="10"/>
<path d="M754.187 123.683H685.625V185.524H754.187V123.683Z" stroke="#FC8031" stroke-width="0.66" stroke-miterlimit="10"/>
<path d="M822.75 123.683H754.187V185.524H822.75V123.683Z" stroke="#FC8031" stroke-width="0.66" stroke-miterlimit="10"/>
<path d="M891.312 123.683H822.75V185.524H891.312V123.683Z" stroke="#FC8031" stroke-width="0.66" stroke-miterlimit="10"/>
<path d="M959.875 123.683H891.312V185.524H959.875V123.683Z" stroke="#FC8031" stroke-width="0.66" stroke-miterlimit="10"/>
<path d="M1028.44 123.683H959.875V185.524H1028.44V123.683Z" stroke="#FC8031" stroke-width="0.66" stroke-miterlimit="10"/>
<path d="M1097 123.683H1028.44V185.524H1097V123.683Z" stroke="#FC8031" stroke-width="0.66" stroke-miterlimit="10"/>
<path d="M1165.56 123.683H1097V185.524H1165.56V123.683Z" stroke="#FC8031" stroke-width="0.66" stroke-miterlimit="10"/>
<path d="M1234.12 123.683H1165.56V185.524H1234.12V123.683Z" stroke="#FC8031" stroke-width="0.66" stroke-miterlimit="10"/>
<path d="M1302.69 123.683H1234.12V185.524H1302.69V123.683Z" stroke="#FC8031" stroke-width="0.66" stroke-miterlimit="10"/>
<path d="M1371.25 123.683H1302.69V185.524H1371.25V123.683Z" stroke="#FC8031" stroke-width="0.66" stroke-miterlimit="10"/>
<path d="M1439.81 123.683H1371.25V185.524H1439.81V123.683Z" stroke="#FC8031" stroke-width="0.66" stroke-miterlimit="10"/>
<path d="M68.5625 185.507H0V247.348H68.5625V185.507Z" stroke="#FC8031" stroke-width="0.66" stroke-miterlimit="10"/>
<path d="M137.125 185.507H68.5625V247.348H137.125V185.507Z" stroke="#FC8031" stroke-width="0.66" stroke-miterlimit="10"/>
<path d="M205.687 185.507H137.125V247.348H205.687V185.507Z" stroke="#FC8031" stroke-width="0.66" stroke-miterlimit="10"/>
<path d="M274.25 185.507H205.687V247.348H274.25V185.507Z" stroke="#FC8031" stroke-width="0.66" stroke-miterlimit="10"/>
<path d="M342.812 185.507H274.25V247.348H342.812V185.507Z" stroke="#FC8031" stroke-width="0.66" stroke-miterlimit="10"/>
<path d="M411.375 185.507H342.812V247.348H411.375V185.507Z" stroke="#FC8031" stroke-width="0.66" stroke-miterlimit="10"/>
<path d="M479.937 185.507H411.375V247.348H479.937V185.507Z" stroke="#FC8031" stroke-width="0.66" stroke-miterlimit="10"/>
<path d="M548.5 185.507H479.937V247.348H548.5V185.507Z" stroke="#FC8031" stroke-width="0.66" stroke-miterlimit="10"/>
<path d="M617.062 185.507H548.5V247.348H617.062V185.507Z" stroke="#FC8031" stroke-width="0.66" stroke-miterlimit="10"/>
<path d="M685.625 185.507H617.062V247.348H685.625V185.507Z" stroke="#FC8031" stroke-width="0.66" stroke-miterlimit="10"/>
<path d="M754.187 185.507H685.625V247.348H754.187V185.507Z" stroke="#FC8031" stroke-width="0.66" stroke-miterlimit="10"/>
<path d="M822.75 185.507H754.187V247.348H822.75V185.507Z" stroke="#FC8031" stroke-width="0.66" stroke-miterlimit="10"/>
<path d="M891.312 185.507H822.75V247.348H891.312V185.507Z" stroke="#FC8031" stroke-width="0.66" stroke-miterlimit="10"/>
<path d="M959.875 185.507H891.312V247.348H959.875V185.507Z" stroke="#FC8031" stroke-width="0.66" stroke-miterlimit="10"/>
<path d="M1028.44 185.507H959.875V247.348H1028.44V185.507Z" stroke="#FC8031" stroke-width="0.66" stroke-miterlimit="10"/>
<path d="M1097 185.507H1028.44V247.348H1097V185.507Z" stroke="#FC8031" stroke-width="0.66" stroke-miterlimit="10"/>
<path d="M1165.56 185.507H1097V247.348H1165.56V185.507Z" stroke="#FC8031" stroke-width="0.66" stroke-miterlimit="10"/>
<path d="M1234.12 185.507H1165.56V247.348H1234.12V185.507Z" stroke="#FC8031" stroke-width="0.66" stroke-miterlimit="10"/>
<path d="M1302.69 185.507H1234.12V247.348H1302.69V185.507Z" stroke="#FC8031" stroke-width="0.66" stroke-miterlimit="10"/>
<path d="M1371.25 185.507H1302.69V247.348H1371.25V185.507Z" stroke="#FC8031" stroke-width="0.66" stroke-miterlimit="10"/>
<path d="M1439.81 185.507H1371.25V247.348H1439.81V185.507Z" stroke="#FC8031" stroke-width="0.66" stroke-miterlimit="10"/>
<path d="M68.5625 247.348H0V309.19H68.5625V247.348Z" stroke="#FC8031" stroke-width="0.66" stroke-miterlimit="10"/>
<path d="M137.125 247.348H68.5625V309.19H137.125V247.348Z" stroke="#FC8031" stroke-width="0.66" stroke-miterlimit="10"/>
<path d="M205.687 247.348H137.125V309.19H205.687V247.348Z" stroke="#FC8031" stroke-width="0.66" stroke-miterlimit="10"/>
<path d="M274.25 247.348H205.687V309.19H274.25V247.348Z" stroke="#FC8031" stroke-width="0.66" stroke-miterlimit="10"/>
<path d="M342.812 247.348H274.25V309.19H342.812V247.348Z" stroke="#FC8031" stroke-width="0.66" stroke-miterlimit="10"/>
<path d="M411.375 247.348H342.812V309.19H411.375V247.348Z" stroke="#FC8031" stroke-width="0.66" stroke-miterlimit="10"/>
<path d="M479.937 247.348H411.375V309.19H479.937V247.348Z" stroke="#FC8031" stroke-width="0.66" stroke-miterlimit="10"/>
<path d="M548.5 247.348H479.937V309.19H548.5V247.348Z" stroke="#FC8031" stroke-width="0.66" stroke-miterlimit="10"/>
<path d="M617.062 247.348H548.5V309.19H617.062V247.348Z" stroke="#FC8031" stroke-width="0.66" stroke-miterlimit="10"/>
<path d="M685.625 247.348H617.062V309.19H685.625V247.348Z" stroke="#FC8031" stroke-width="0.66" stroke-miterlimit="10"/>
<path d="M754.187 247.348H685.625V309.19H754.187V247.348Z" stroke="#FC8031" stroke-width="0.66" stroke-miterlimit="10"/>
<path d="M822.75 247.348H754.187V309.19H822.75V247.348Z" stroke="#FC8031" stroke-width="0.66" stroke-miterlimit="10"/>
<path d="M891.312 247.348H822.75V309.19H891.312V247.348Z" stroke="#FC8031" stroke-width="0.66" stroke-miterlimit="10"/>
<path d="M959.875 247.348H891.312V309.19H959.875V247.348Z" stroke="#FC8031" stroke-width="0.66" stroke-miterlimit="10"/>
<path d="M1028.44 247.348H959.875V309.19H1028.44V247.348Z" stroke="#FC8031" stroke-width="0.66" stroke-miterlimit="10"/>
<path d="M1097 247.348H1028.44V309.19H1097V247.348Z" stroke="#FC8031" stroke-width="0.66" stroke-miterlimit="10"/>
<path d="M1165.56 247.348H1097V309.19H1165.56V247.348Z" stroke="#FC8031" stroke-width="0.66" stroke-miterlimit="10"/>
<path d="M1234.12 247.348H1165.56V309.19H1234.12V247.348Z" stroke="#FC8031" stroke-width="0.66" stroke-miterlimit="10"/>
<path d="M1302.69 247.348H1234.12V309.19H1302.69V247.348Z" stroke="#FC8031" stroke-width="0.66" stroke-miterlimit="10"/>
<path d="M1371.25 247.348H1302.69V309.19H1371.25V247.348Z" stroke="#FC8031" stroke-width="0.66" stroke-miterlimit="10"/>
<path d="M1439.81 247.348H1371.25V309.19H1439.81V247.348Z" stroke="#FC8031" stroke-width="0.66" stroke-miterlimit="10"/>
<path d="M68.5625 309.19H0V371.031H68.5625V309.19Z" stroke="#FC8031" stroke-width="0.66" stroke-miterlimit="10"/>
<path d="M137.125 309.19H68.5625V371.031H137.125V309.19Z" stroke="#FC8031" stroke-width="0.66" stroke-miterlimit="10"/>
<path d="M205.687 309.19H137.125V371.031H205.687V309.19Z" stroke="#FC8031" stroke-width="0.66" stroke-miterlimit="10"/>
<path d="M274.25 309.19H205.687V371.031H274.25V309.19Z" stroke="#FC8031" stroke-width="0.66" stroke-miterlimit="10"/>
<path d="M342.812 309.19H274.25V371.031H342.812V309.19Z" stroke="#FC8031" stroke-width="0.66" stroke-miterlimit="10"/>
<path d="M411.375 309.19H342.812V371.031H411.375V309.19Z" stroke="#FC8031" stroke-width="0.66" stroke-miterlimit="10"/>
<path d="M479.937 309.19H411.375V371.031H479.937V309.19Z" stroke="#FC8031" stroke-width="0.66" stroke-miterlimit="10"/>
<path d="M548.5 309.19H479.937V371.031H548.5V309.19Z" stroke="#FC8031" stroke-width="0.66" stroke-miterlimit="10"/>
<path d="M617.062 309.19H548.5V371.031H617.062V309.19Z" stroke="#FC8031" stroke-width="0.66" stroke-miterlimit="10"/>
<path d="M685.625 309.19H617.062V371.031H685.625V309.19Z" stroke="#FC8031" stroke-width="0.66" stroke-miterlimit="10"/>
<path d="M754.187 309.19H685.625V371.031H754.187V309.19Z" stroke="#FC8031" stroke-width="0.66" stroke-miterlimit="10"/>
<path d="M822.75 309.19H754.187V371.031H822.75V309.19Z" stroke="#FC8031" stroke-width="0.66" stroke-miterlimit="10"/>
<path d="M891.312 309.19H822.75V371.031H891.312V309.19Z" stroke="#FC8031" stroke-width="0.66" stroke-miterlimit="10"/>
<path d="M959.875 309.19H891.312V371.031H959.875V309.19Z" stroke="#FC8031" stroke-width="0.66" stroke-miterlimit="10"/>
<path d="M1028.44 309.19H959.875V371.031H1028.44V309.19Z" stroke="#FC8031" stroke-width="0.66" stroke-miterlimit="10"/>
<path d="M1097 309.19H1028.44V371.031H1097V309.19Z" stroke="#FC8031" stroke-width="0.66" stroke-miterlimit="10"/>
<path d="M1165.56 309.19H1097V371.031H1165.56V309.19Z" stroke="#FC8031" stroke-width="0.66" stroke-miterlimit="10"/>
<path d="M1234.12 309.19H1165.56V371.031H1234.12V309.19Z" stroke="#FC8031" stroke-width="0.66" stroke-miterlimit="10"/>
<path d="M1302.69 309.19H1234.12V371.031H1302.69V309.19Z" stroke="#FC8031" stroke-width="0.66" stroke-miterlimit="10"/>
<path d="M1371.25 309.19H1302.69V371.031H1371.25V309.19Z" stroke="#FC8031" stroke-width="0.66" stroke-miterlimit="10"/>
<path d="M1439.81 309.19H1371.25V371.031H1439.81V309.19Z" stroke="#FC8031" stroke-width="0.66" stroke-miterlimit="10"/>
<path d="M68.5625 371.031H0V432.872H68.5625V371.031Z" stroke="#FC8031" stroke-width="0.66" stroke-miterlimit="10"/>
<path d="M137.125 371.031H68.5625V432.872H137.125V371.031Z" stroke="#FC8031" stroke-width="0.66" stroke-miterlimit="10"/>
<path d="M205.687 371.031H137.125V432.872H205.687V371.031Z" stroke="#FC8031" stroke-width="0.66" stroke-miterlimit="10"/>
<path d="M274.25 371.031H205.687V432.872H274.25V371.031Z" stroke="#FC8031" stroke-width="0.66" stroke-miterlimit="10"/>
<path d="M342.812 371.031H274.25V432.872H342.812V371.031Z" stroke="#FC8031" stroke-width="0.66" stroke-miterlimit="10"/>
<path d="M411.375 371.031H342.812V432.872H411.375V371.031Z" stroke="#FC8031" stroke-width="0.66" stroke-miterlimit="10"/>
<path d="M479.937 371.031H411.375V432.872H479.937V371.031Z" stroke="#FC8031" stroke-width="0.66" stroke-miterlimit="10"/>
<path d="M548.5 371.031H479.937V432.872H548.5V371.031Z" stroke="#FC8031" stroke-width="0.66" stroke-miterlimit="10"/>
<path d="M617.062 371.031H548.5V432.872H617.062V371.031Z" stroke="#FC8031" stroke-width="0.66" stroke-miterlimit="10"/>
<path d="M685.625 371.031H617.062V432.872H685.625V371.031Z" stroke="#FC8031" stroke-width="0.66" stroke-miterlimit="10"/>
<path d="M754.187 371.031H685.625V432.872H754.187V371.031Z" stroke="#FC8031" stroke-width="0.66" stroke-miterlimit="10"/>
<path d="M822.75 371.031H754.187V432.872H822.75V371.031Z" stroke="#FC8031" stroke-width="0.66" stroke-miterlimit="10"/>
<path d="M891.312 371.031H822.75V432.872H891.312V371.031Z" stroke="#FC8031" stroke-width="0.66" stroke-miterlimit="10"/>
<path d="M959.875 371.031H891.312V432.872H959.875V371.031Z" stroke="#FC8031" stroke-width="0.66" stroke-miterlimit="10"/>
<path d="M1028.44 371.031H959.875V432.872H1028.44V371.031Z" stroke="#FC8031" stroke-width="0.66" stroke-miterlimit="10"/>
<path d="M1097 371.031H1028.44V432.872H1097V371.031Z" stroke="#FC8031" stroke-width="0.66" stroke-miterlimit="10"/>
<path d="M1165.56 371.031H1097V432.872H1165.56V371.031Z" stroke="#FC8031" stroke-width="0.66" stroke-miterlimit="10"/>
<path d="M1234.12 371.031H1165.56V432.872H1234.12V371.031Z" stroke="#FC8031" stroke-width="0.66" stroke-miterlimit="10"/>
<path d="M1302.69 371.031H1234.12V432.872H1302.69V371.031Z" stroke="#FC8031" stroke-width="0.66" stroke-miterlimit="10"/>
<path d="M1371.25 371.031H1302.69V432.872H1371.25V371.031Z" stroke="#FC8031" stroke-width="0.66" stroke-miterlimit="10"/>
<path d="M1439.81 371.031H1371.25V432.872H1439.81V371.031Z" stroke="#FC8031" stroke-width="0.66" stroke-miterlimit="10"/>
<path d="M68.5625 432.855H0V494.696H68.5625V432.855Z" stroke="#FC8031" stroke-width="0.66" stroke-miterlimit="10"/>
<path d="M137.125 432.855H68.5625V494.696H137.125V432.855Z" stroke="#FC8031" stroke-width="0.66" stroke-miterlimit="10"/>
<path d="M205.687 432.855H137.125V494.696H205.687V432.855Z" stroke="#FC8031" stroke-width="0.66" stroke-miterlimit="10"/>
<path d="M274.25 432.855H205.687V494.696H274.25V432.855Z" stroke="#FC8031" stroke-width="0.66" stroke-miterlimit="10"/>
<path d="M342.812 432.855H274.25V494.696H342.812V432.855Z" stroke="#FC8031" stroke-width="0.66" stroke-miterlimit="10"/>
<path d="M411.375 432.855H342.812V494.696H411.375V432.855Z" stroke="#FC8031" stroke-width="0.66" stroke-miterlimit="10"/>
<path d="M479.937 432.855H411.375V494.696H479.937V432.855Z" stroke="#FC8031" stroke-width="0.66" stroke-miterlimit="10"/>
<path d="M548.5 432.855H479.937V494.696H548.5V432.855Z" stroke="#FC8031" stroke-width="0.66" stroke-miterlimit="10"/>
<path d="M617.062 432.855H548.5V494.696H617.062V432.855Z" stroke="#FC8031" stroke-width="0.66" stroke-miterlimit="10"/>
<path d="M685.625 432.855H617.062V494.696H685.625V432.855Z" stroke="#FC8031" stroke-width="0.66" stroke-miterlimit="10"/>
<path d="M754.187 432.855H685.625V494.696H754.187V432.855Z" stroke="#FC8031" stroke-width="0.66" stroke-miterlimit="10"/>
<path d="M822.75 432.855H754.187V494.696H822.75V432.855Z" stroke="#FC8031" stroke-width="0.66" stroke-miterlimit="10"/>
<path d="M891.312 432.855H822.75V494.696H891.312V432.855Z" stroke="#FC8031" stroke-width="0.66" stroke-miterlimit="10"/>
<path d="M959.875 432.855H891.312V494.696H959.875V432.855Z" stroke="#FC8031" stroke-width="0.66" stroke-miterlimit="10"/>
<path d="M1028.44 432.855H959.875V494.696H1028.44V432.855Z" stroke="#FC8031" stroke-width="0.66" stroke-miterlimit="10"/>
<path d="M1097 432.855H1028.44V494.696H1097V432.855Z" stroke="#FC8031" stroke-width="0.66" stroke-miterlimit="10"/>
<path d="M1165.56 432.855H1097V494.696H1165.56V432.855Z" stroke="#FC8031" stroke-width="0.66" stroke-miterlimit="10"/>
<path d="M1234.12 432.855H1165.56V494.696H1234.12V432.855Z" stroke="#FC8031" stroke-width="0.66" stroke-miterlimit="10"/>
<path d="M1302.69 432.855H1234.12V494.696H1302.69V432.855Z" stroke="#FC8031" stroke-width="0.66" stroke-miterlimit="10"/>
<path d="M1371.25 432.855H1302.69V494.696H1371.25V432.855Z" stroke="#FC8031" stroke-width="0.66" stroke-miterlimit="10"/>
<path d="M1439.81 432.855H1371.25V494.696H1439.81V432.855Z" stroke="#FC8031" stroke-width="0.66" stroke-miterlimit="10"/>
<path d="M68.5625 494.696H0V556.538H68.5625V494.696Z" stroke="#FC8031" stroke-width="0.66" stroke-miterlimit="10"/>
<path d="M137.125 494.696H68.5625V556.538H137.125V494.696Z" stroke="#FC8031" stroke-width="0.66" stroke-miterlimit="10"/>
<path d="M205.687 494.696H137.125V556.538H205.687V494.696Z" stroke="#FC8031" stroke-width="0.66" stroke-miterlimit="10"/>
<path d="M274.25 494.696H205.687V556.538H274.25V494.696Z" stroke="#FC8031" stroke-width="0.66" stroke-miterlimit="10"/>
<path d="M342.812 494.696H274.25V556.538H342.812V494.696Z" stroke="#FC8031" stroke-width="0.66" stroke-miterlimit="10"/>
<path d="M411.375 494.696H342.812V556.538H411.375V494.696Z" stroke="#FC8031" stroke-width="0.66" stroke-miterlimit="10"/>
<path d="M479.937 494.696H411.375V556.538H479.937V494.696Z" stroke="#FC8031" stroke-width="0.66" stroke-miterlimit="10"/>
<path d="M548.5 494.696H479.937V556.538H548.5V494.696Z" stroke="#FC8031" stroke-width="0.66" stroke-miterlimit="10"/>
<path d="M617.062 494.696H548.5V556.538H617.062V494.696Z" stroke="#FC8031" stroke-width="0.66" stroke-miterlimit="10"/>
<path d="M685.625 494.696H617.062V556.538H685.625V494.696Z" stroke="#FC8031" stroke-width="0.66" stroke-miterlimit="10"/>
<path d="M754.187 494.696H685.625V556.538H754.187V494.696Z" stroke="#FC8031" stroke-width="0.66" stroke-miterlimit="10"/>
<path d="M822.75 494.696H754.187V556.538H822.75V494.696Z" stroke="#FC8031" stroke-width="0.66" stroke-miterlimit="10"/>
<path d="M891.312 494.696H822.75V556.538H891.312V494.696Z" stroke="#FC8031" stroke-width="0.66" stroke-miterlimit="10"/>
<path d="M959.875 494.696H891.312V556.538H959.875V494.696Z" stroke="#FC8031" stroke-width="0.66" stroke-miterlimit="10"/>
<path d="M1028.44 494.696H959.875V556.538H1028.44V494.696Z" stroke="#FC8031" stroke-width="0.66" stroke-miterlimit="10"/>
<path d="M1097 494.696H1028.44V556.538H1097V494.696Z" stroke="#FC8031" stroke-width="0.66" stroke-miterlimit="10"/>
<path d="M1165.56 494.696H1097V556.538H1165.56V494.696Z" stroke="#FC8031" stroke-width="0.66" stroke-miterlimit="10"/>
<path d="M1234.12 494.696H1165.56V556.538H1234.12V494.696Z" stroke="#FC8031" stroke-width="0.66" stroke-miterlimit="10"/>
<path d="M1302.69 494.696H1234.12V556.538H1302.69V494.696Z" stroke="#FC8031" stroke-width="0.66" stroke-miterlimit="10"/>
<path d="M1371.25 494.696H1302.69V556.538H1371.25V494.696Z" stroke="#FC8031" stroke-width="0.66" stroke-miterlimit="10"/>
<path d="M1439.81 494.696H1371.25V556.538H1439.81V494.696Z" stroke="#FC8031" stroke-width="0.66" stroke-miterlimit="10"/>
<path d="M68.5625 556.538H0V618.379H68.5625V556.538Z" stroke="#FC8031" stroke-width="0.66" stroke-miterlimit="10"/>
<path d="M137.125 556.538H68.5625V618.379H137.125V556.538Z" stroke="#FC8031" stroke-width="0.66" stroke-miterlimit="10"/>
<path d="M205.687 556.538H137.125V618.379H205.687V556.538Z" stroke="#FC8031" stroke-width="0.66" stroke-miterlimit="10"/>
<path d="M274.25 556.538H205.687V618.379H274.25V556.538Z" stroke="#FC8031" stroke-width="0.66" stroke-miterlimit="10"/>
<path d="M342.812 556.538H274.25V618.379H342.812V556.538Z" stroke="#FC8031" stroke-width="0.66" stroke-miterlimit="10"/>
<path d="M411.375 556.538H342.812V618.379H411.375V556.538Z" stroke="#FC8031" stroke-width="0.66" stroke-miterlimit="10"/>
<path d="M479.937 556.538H411.375V618.379H479.937V556.538Z" stroke="#FC8031" stroke-width="0.66" stroke-miterlimit="10"/>
<path d="M548.5 556.538H479.937V618.379H548.5V556.538Z" stroke="#FC8031" stroke-width="0.66" stroke-miterlimit="10"/>
<path d="M617.062 556.538H548.5V618.379H617.062V556.538Z" stroke="#FC8031" stroke-width="0.66" stroke-miterlimit="10"/>
<path d="M685.625 556.538H617.062V618.379H685.625V556.538Z" stroke="#FC8031" stroke-width="0.66" stroke-miterlimit="10"/>
<path d="M754.187 556.538H685.625V618.379H754.187V556.538Z" stroke="#FC8031" stroke-width="0.66" stroke-miterlimit="10"/>
<path d="M822.75 556.538H754.187V618.379H822.75V556.538Z" stroke="#FC8031" stroke-width="0.66" stroke-miterlimit="10"/>
<path d="M891.312 556.538H822.75V618.379H891.312V556.538Z" stroke="#FC8031" stroke-width="0.66" stroke-miterlimit="10"/>
<path d="M959.875 556.538H891.312V618.379H959.875V556.538Z" stroke="#FC8031" stroke-width="0.66" stroke-miterlimit="10"/>
<path d="M1028.44 556.538H959.875V618.379H1028.44V556.538Z" stroke="#FC8031" stroke-width="0.66" stroke-miterlimit="10"/>
<path d="M1097 556.538H1028.44V618.379H1097V556.538Z" stroke="#FC8031" stroke-width="0.66" stroke-miterlimit="10"/>
<path d="M1165.56 556.538H1097V618.379H1165.56V556.538Z" stroke="#FC8031" stroke-width="0.66" stroke-miterlimit="10"/>
<path d="M1234.12 556.538H1165.56V618.379H1234.12V556.538Z" stroke="#FC8031" stroke-width="0.66" stroke-miterlimit="10"/>
<path d="M1302.69 556.538H1234.12V618.379H1302.69V556.538Z" stroke="#FC8031" stroke-width="0.66" stroke-miterlimit="10"/>
<path d="M1371.25 556.538H1302.69V618.379H1371.25V556.538Z" stroke="#FC8031" stroke-width="0.66" stroke-miterlimit="10"/>
<path d="M1439.81 556.538H1371.25V618.379H1439.81V556.538Z" stroke="#FC8031" stroke-width="0.66" stroke-miterlimit="10"/>
<path d="M68.5625 618.379H0V680.22H68.5625V618.379Z" stroke="#FC8031" stroke-width="0.66" stroke-miterlimit="10"/>
<path d="M137.125 618.379H68.5625V680.22H137.125V618.379Z" stroke="#FC8031" stroke-width="0.66" stroke-miterlimit="10"/>
<path d="M205.687 618.379H137.125V680.22H205.687V618.379Z" stroke="#FC8031" stroke-width="0.66" stroke-miterlimit="10"/>
<path d="M274.25 618.379H205.687V680.22H274.25V618.379Z" stroke="#FC8031" stroke-width="0.66" stroke-miterlimit="10"/>
<path d="M342.812 618.379H274.25V680.22H342.812V618.379Z" stroke="#FC8031" stroke-width="0.66" stroke-miterlimit="10"/>
<path d="M411.375 618.379H342.812V680.22H411.375V618.379Z" stroke="#FC8031" stroke-width="0.66" stroke-miterlimit="10"/>
<path d="M479.937 618.379H411.375V680.22H479.937V618.379Z" stroke="#FC8031" stroke-width="0.66" stroke-miterlimit="10"/>
<path d="M548.5 618.379H479.937V680.22H548.5V618.379Z" stroke="#FC8031" stroke-width="0.66" stroke-miterlimit="10"/>
<path d="M617.062 618.379H548.5V680.22H617.062V618.379Z" stroke="#FC8031" stroke-width="0.66" stroke-miterlimit="10"/>
<path d="M685.625 618.379H617.062V680.22H685.625V618.379Z" stroke="#FC8031" stroke-width="0.66" stroke-miterlimit="10"/>
<path d="M754.187 618.379H685.625V680.22H754.187V618.379Z" stroke="#FC8031" stroke-width="0.66" stroke-miterlimit="10"/>
<path d="M822.75 618.379H754.187V680.22H822.75V618.379Z" stroke="#FC8031" stroke-width="0.66" stroke-miterlimit="10"/>
<path d="M891.312 618.379H822.75V680.22H891.312V618.379Z" stroke="#FC8031" stroke-width="0.66" stroke-miterlimit="10"/>
<path d="M959.875 618.379H891.312V680.22H959.875V618.379Z" stroke="#FC8031" stroke-width="0.66" stroke-miterlimit="10"/>
<path d="M1028.44 618.379H959.875V680.22H1028.44V618.379Z" stroke="#FC8031" stroke-width="0.66" stroke-miterlimit="10"/>
<path d="M1097 618.379H1028.44V680.22H1097V618.379Z" stroke="#FC8031" stroke-width="0.66" stroke-miterlimit="10"/>
<path d="M1165.56 618.379H1097V680.22H1165.56V618.379Z" stroke="#FC8031" stroke-width="0.66" stroke-miterlimit="10"/>
<path d="M1234.12 618.379H1165.56V680.22H1234.12V618.379Z" stroke="#FC8031" stroke-width="0.66" stroke-miterlimit="10"/>
<path d="M1302.69 618.379H1234.12V680.22H1302.69V618.379Z" stroke="#FC8031" stroke-width="0.66" stroke-miterlimit="10"/>
<path d="M1371.25 618.379H1302.69V680.22H1371.25V618.379Z" stroke="#FC8031" stroke-width="0.66" stroke-miterlimit="10"/>
<path d="M1439.81 618.379H1371.25V680.22H1439.81V618.379Z" stroke="#FC8031" stroke-width="0.66" stroke-miterlimit="10"/>
<path d="M68.5625 680.203H0V742.045H68.5625V680.203Z" stroke="#FC8031" stroke-width="0.66" stroke-miterlimit="10"/>
<path d="M137.125 680.203H68.5625V742.045H137.125V680.203Z" stroke="#FC8031" stroke-width="0.66" stroke-miterlimit="10"/>
<path d="M205.687 680.203H137.125V742.045H205.687V680.203Z" stroke="#FC8031" stroke-width="0.66" stroke-miterlimit="10"/>
<path d="M274.25 680.203H205.687V742.045H274.25V680.203Z" stroke="#FC8031" stroke-width="0.66" stroke-miterlimit="10"/>
<path d="M342.812 680.203H274.25V742.045H342.812V680.203Z" stroke="#FC8031" stroke-width="0.66" stroke-miterlimit="10"/>
<path d="M411.375 680.203H342.812V742.045H411.375V680.203Z" stroke="#FC8031" stroke-width="0.66" stroke-miterlimit="10"/>
<path d="M479.937 680.203H411.375V742.045H479.937V680.203Z" stroke="#FC8031" stroke-width="0.66" stroke-miterlimit="10"/>
<path d="M548.5 680.203H479.937V742.045H548.5V680.203Z" stroke="#FC8031" stroke-width="0.66" stroke-miterlimit="10"/>
<path d="M617.062 680.203H548.5V742.045H617.062V680.203Z" stroke="#FC8031" stroke-width="0.66" stroke-miterlimit="10"/>
<path d="M685.625 680.203H617.062V742.045H685.625V680.203Z" stroke="#FC8031" stroke-width="0.66" stroke-miterlimit="10"/>
<path d="M754.187 680.203H685.625V742.045H754.187V680.203Z" stroke="#FC8031" stroke-width="0.66" stroke-miterlimit="10"/>
<path d="M822.75 680.203H754.187V742.045H822.75V680.203Z" stroke="#FC8031" stroke-width="0.66" stroke-miterlimit="10"/>
<path d="M891.312 680.203H822.75V742.045H891.312V680.203Z" stroke="#FC8031" stroke-width="0.66" stroke-miterlimit="10"/>
<path d="M959.875 680.203H891.312V742.045H959.875V680.203Z" stroke="#FC8031" stroke-width="0.66" stroke-miterlimit="10"/>
<path d="M1028.44 680.203H959.875V742.045H1028.44V680.203Z" stroke="#FC8031" stroke-width="0.66" stroke-miterlimit="10"/>
<path d="M1097 680.203H1028.44V742.045H1097V680.203Z" stroke="#FC8031" stroke-width="0.66" stroke-miterlimit="10"/>
<path d="M1165.56 680.203H1097V742.045H1165.56V680.203Z" stroke="#FC8031" stroke-width="0.66" stroke-miterlimit="10"/>
<path d="M1234.12 680.203H1165.56V742.045H1234.12V680.203Z" stroke="#FC8031" stroke-width="0.66" stroke-miterlimit="10"/>
<path d="M1302.69 680.203H1234.12V742.045H1302.69V680.203Z" stroke="#FC8031" stroke-width="0.66" stroke-miterlimit="10"/>
<path d="M1371.25 680.203H1302.69V742.045H1371.25V680.203Z" stroke="#FC8031" stroke-width="0.66" stroke-miterlimit="10"/>
<path d="M1439.81 680.203H1371.25V742.045H1439.81V680.203Z" stroke="#FC8031" stroke-width="0.66" stroke-miterlimit="10"/>
<path d="M68.5625 742.045H0V803.886H68.5625V742.045Z" stroke="#FC8031" stroke-width="0.66" stroke-miterlimit="10"/>
<path d="M137.125 742.045H68.5625V803.886H137.125V742.045Z" stroke="#FC8031" stroke-width="0.66" stroke-miterlimit="10"/>
<path d="M205.687 742.045H137.125V803.886H205.687V742.045Z" stroke="#FC8031" stroke-width="0.66" stroke-miterlimit="10"/>
<path d="M274.25 742.045H205.687V803.886H274.25V742.045Z" stroke="#FC8031" stroke-width="0.66" stroke-miterlimit="10"/>
<path d="M342.812 742.045H274.25V803.886H342.812V742.045Z" stroke="#FC8031" stroke-width="0.66" stroke-miterlimit="10"/>
<path d="M411.375 742.045H342.812V803.886H411.375V742.045Z" stroke="#FC8031" stroke-width="0.66" stroke-miterlimit="10"/>
<path d="M479.937 742.045H411.375V803.886H479.937V742.045Z" stroke="#FC8031" stroke-width="0.66" stroke-miterlimit="10"/>
<path d="M548.5 742.045H479.937V803.886H548.5V742.045Z" stroke="#FC8031" stroke-width="0.66" stroke-miterlimit="10"/>
<path d="M617.062 742.045H548.5V803.886H617.062V742.045Z" stroke="#FC8031" stroke-width="0.66" stroke-miterlimit="10"/>
<path d="M685.625 742.045H617.062V803.886H685.625V742.045Z" stroke="#FC8031" stroke-width="0.66" stroke-miterlimit="10"/>
<path d="M754.187 742.045H685.625V803.886H754.187V742.045Z" stroke="#FC8031" stroke-width="0.66" stroke-miterlimit="10"/>
<path d="M822.75 742.045H754.187V803.886H822.75V742.045Z" stroke="#FC8031" stroke-width="0.66" stroke-miterlimit="10"/>
<path d="M891.312 742.045H822.75V803.886H891.312V742.045Z" stroke="#FC8031" stroke-width="0.66" stroke-miterlimit="10"/>
<path d="M959.875 742.045H891.312V803.886H959.875V742.045Z" stroke="#FC8031" stroke-width="0.66" stroke-miterlimit="10"/>
<path d="M1028.44 742.045H959.875V803.886H1028.44V742.045Z" stroke="#FC8031" stroke-width="0.66" stroke-miterlimit="10"/>
<path d="M1097 742.045H1028.44V803.886H1097V742.045Z" stroke="#FC8031" stroke-width="0.66" stroke-miterlimit="10"/>
<path d="M1165.56 742.045H1097V803.886H1165.56V742.045Z" stroke="#FC8031" stroke-width="0.66" stroke-miterlimit="10"/>
<path d="M1234.12 742.045H1165.56V803.886H1234.12V742.045Z" stroke="#FC8031" stroke-width="0.66" stroke-miterlimit="10"/>
<path d="M1302.69 742.045H1234.12V803.886H1302.69V742.045Z" stroke="#FC8031" stroke-width="0.66" stroke-miterlimit="10"/>
<path d="M1371.25 742.045H1302.69V803.886H1371.25V742.045Z" stroke="#FC8031" stroke-width="0.66" stroke-miterlimit="10"/>
<path d="M1439.81 742.045H1371.25V803.886H1439.81V742.045Z" stroke="#FC8031" stroke-width="0.66" stroke-miterlimit="10"/>
<path d="M68.5625 803.886H0V865.727H68.5625V803.886Z" stroke="#FC8031" stroke-width="0.66" stroke-miterlimit="10"/>
<path d="M137.125 803.886H68.5625V865.727H137.125V803.886Z" stroke="#FC8031" stroke-width="0.66" stroke-miterlimit="10"/>
<path d="M205.687 803.886H137.125V865.727H205.687V803.886Z" stroke="#FC8031" stroke-width="0.66" stroke-miterlimit="10"/>
<path d="M274.25 803.886H205.687V865.727H274.25V803.886Z" stroke="#FC8031" stroke-width="0.66" stroke-miterlimit="10"/>
<path d="M342.812 803.886H274.25V865.727H342.812V803.886Z" stroke="#FC8031" stroke-width="0.66" stroke-miterlimit="10"/>
<path d="M411.375 803.886H342.812V865.727H411.375V803.886Z" stroke="#FC8031" stroke-width="0.66" stroke-miterlimit="10"/>
<path d="M479.937 803.886H411.375V865.727H479.937V803.886Z" stroke="#FC8031" stroke-width="0.66" stroke-miterlimit="10"/>
<path d="M548.5 803.886H479.937V865.727H548.5V803.886Z" stroke="#FC8031" stroke-width="0.66" stroke-miterlimit="10"/>
<path d="M617.062 803.886H548.5V865.727H617.062V803.886Z" stroke="#FC8031" stroke-width="0.66" stroke-miterlimit="10"/>
<path d="M685.625 803.886H617.062V865.727H685.625V803.886Z" stroke="#FC8031" stroke-width="0.66" stroke-miterlimit="10"/>
<path d="M754.187 803.886H685.625V865.727H754.187V803.886Z" stroke="#FC8031" stroke-width="0.66" stroke-miterlimit="10"/>
<path d="M822.75 803.886H754.187V865.727H822.75V803.886Z" stroke="#FC8031" stroke-width="0.66" stroke-miterlimit="10"/>
<path d="M891.312 803.886H822.75V865.727H891.312V803.886Z" stroke="#FC8031" stroke-width="0.66" stroke-miterlimit="10"/>
<path d="M959.875 803.886H891.312V865.727H959.875V803.886Z" stroke="#FC8031" stroke-width="0.66" stroke-miterlimit="10"/>
<path d="M1028.44 803.886H959.875V865.727H1028.44V803.886Z" stroke="#FC8031" stroke-width="0.66" stroke-miterlimit="10"/>
<path d="M1097 803.886H1028.44V865.727H1097V803.886Z" stroke="#FC8031" stroke-width="0.66" stroke-miterlimit="10"/>
<path d="M1165.56 803.886H1097V865.727H1165.56V803.886Z" stroke="#FC8031" stroke-width="0.66" stroke-miterlimit="10"/>
<path d="M1234.12 803.886H1165.56V865.727H1234.12V803.886Z" stroke="#FC8031" stroke-width="0.66" stroke-miterlimit="10"/>
<path d="M1302.69 803.886H1234.12V865.727H1302.69V803.886Z" stroke="#FC8031" stroke-width="0.66" stroke-miterlimit="10"/>
<path d="M1371.25 803.886H1302.69V865.727H1371.25V803.886Z" stroke="#FC8031" stroke-width="0.66" stroke-miterlimit="10"/>
<path d="M1439.81 803.886H1371.25V865.727H1439.81V803.886Z" stroke="#FC8031" stroke-width="0.66" stroke-miterlimit="10"/>
<path d="M68.5625 865.727H0V927.569H68.5625V865.727Z" stroke="#FC8031" stroke-width="0.66" stroke-miterlimit="10"/>
<path d="M137.125 865.727H68.5625V927.569H137.125V865.727Z" stroke="#FC8031" stroke-width="0.66" stroke-miterlimit="10"/>
<path d="M205.687 865.727H137.125V927.569H205.687V865.727Z" stroke="#FC8031" stroke-width="0.66" stroke-miterlimit="10"/>
<path d="M274.25 865.727H205.687V927.569H274.25V865.727Z" stroke="#FC8031" stroke-width="0.66" stroke-miterlimit="10"/>
<path d="M342.812 865.727H274.25V927.569H342.812V865.727Z" stroke="#FC8031" stroke-width="0.66" stroke-miterlimit="10"/>
<path d="M411.375 865.727H342.812V927.569H411.375V865.727Z" stroke="#FC8031" stroke-width="0.66" stroke-miterlimit="10"/>
<path d="M479.937 865.727H411.375V927.569H479.937V865.727Z" stroke="#FC8031" stroke-width="0.66" stroke-miterlimit="10"/>
<path d="M548.5 865.727H479.937V927.569H548.5V865.727Z" stroke="#FC8031" stroke-width="0.66" stroke-miterlimit="10"/>
<path d="M617.062 865.727H548.5V927.569H617.062V865.727Z" stroke="#FC8031" stroke-width="0.66" stroke-miterlimit="10"/>
<path d="M685.625 865.727H617.062V927.569H685.625V865.727Z" stroke="#FC8031" stroke-width="0.66" stroke-miterlimit="10"/>
<path d="M754.187 865.727H685.625V927.569H754.187V865.727Z" stroke="#FC8031" stroke-width="0.66" stroke-miterlimit="10"/>
<path d="M822.75 865.727H754.187V927.569H822.75V865.727Z" stroke="#FC8031" stroke-width="0.66" stroke-miterlimit="10"/>
<path d="M891.312 865.727H822.75V927.569H891.312V865.727Z" stroke="#FC8031" stroke-width="0.66" stroke-miterlimit="10"/>
<path d="M959.875 865.727H891.312V927.569H959.875V865.727Z" stroke="#FC8031" stroke-width="0.66" stroke-miterlimit="10"/>
<path d="M1028.44 865.727H959.875V927.569H1028.44V865.727Z" stroke="#FC8031" stroke-width="0.66" stroke-miterlimit="10"/>
<path d="M1097 865.727H1028.44V927.569H1097V865.727Z" stroke="#FC8031" stroke-width="0.66" stroke-miterlimit="10"/>
<path d="M1165.56 865.727H1097V927.569H1165.56V865.727Z" stroke="#FC8031" stroke-width="0.66" stroke-miterlimit="10"/>
<path d="M1234.12 865.727H1165.56V927.569H1234.12V865.727Z" stroke="#FC8031" stroke-width="0.66" stroke-miterlimit="10"/>
<path d="M1302.69 865.727H1234.12V927.569H1302.69V865.727Z" stroke="#FC8031" stroke-width="0.66" stroke-miterlimit="10"/>
<path d="M1371.25 865.727H1302.69V927.569H1371.25V865.727Z" stroke="#FC8031" stroke-width="0.66" stroke-miterlimit="10"/>
<path d="M1439.81 865.727H1371.25V927.569H1439.81V865.727Z" stroke="#FC8031" stroke-width="0.66" stroke-miterlimit="10"/>
<path d="M68.5625 927.552H0V989.393H68.5625V927.552Z" stroke="#FC8031" stroke-width="0.66" stroke-miterlimit="10"/>
<path d="M137.125 927.552H68.5625V989.393H137.125V927.552Z" stroke="#FC8031" stroke-width="0.66" stroke-miterlimit="10"/>
<path d="M205.687 927.552H137.125V989.393H205.687V927.552Z" stroke="#FC8031" stroke-width="0.66" stroke-miterlimit="10"/>
<path d="M274.25 927.552H205.687V989.393H274.25V927.552Z" stroke="#FC8031" stroke-width="0.66" stroke-miterlimit="10"/>
<path d="M342.812 927.552H274.25V989.393H342.812V927.552Z" stroke="#FC8031" stroke-width="0.66" stroke-miterlimit="10"/>
<path d="M411.375 927.552H342.812V989.393H411.375V927.552Z" stroke="#FC8031" stroke-width="0.66" stroke-miterlimit="10"/>
<path d="M479.937 927.552H411.375V989.393H479.937V927.552Z" stroke="#FC8031" stroke-width="0.66" stroke-miterlimit="10"/>
<path d="M548.5 927.552H479.937V989.393H548.5V927.552Z" stroke="#FC8031" stroke-width="0.66" stroke-miterlimit="10"/>
<path d="M617.062 927.552H548.5V989.393H617.062V927.552Z" stroke="#FC8031" stroke-width="0.66" stroke-miterlimit="10"/>
<path d="M685.625 927.552H617.062V989.393H685.625V927.552Z" stroke="#FC8031" stroke-width="0.66" stroke-miterlimit="10"/>
<path d="M754.187 927.552H685.625V989.393H754.187V927.552Z" stroke="#FC8031" stroke-width="0.66" stroke-miterlimit="10"/>
<path d="M822.75 927.552H754.187V989.393H822.75V927.552Z" stroke="#FC8031" stroke-width="0.66" stroke-miterlimit="10"/>
<path d="M891.312 927.552H822.75V989.393H891.312V927.552Z" stroke="#FC8031" stroke-width="0.66" stroke-miterlimit="10"/>
<path d="M959.875 927.552H891.312V989.393H959.875V927.552Z" stroke="#FC8031" stroke-width="0.66" stroke-miterlimit="10"/>
<path d="M1028.44 927.552H959.875V989.393H1028.44V927.552Z" stroke="#FC8031" stroke-width="0.66" stroke-miterlimit="10"/>
<path d="M1097 927.552H1028.44V989.393H1097V927.552Z" stroke="#FC8031" stroke-width="0.66" stroke-miterlimit="10"/>
<path d="M1165.56 927.552H1097V989.393H1165.56V927.552Z" stroke="#FC8031" stroke-width="0.66" stroke-miterlimit="10"/>
<path d="M1234.12 927.552H1165.56V989.393H1234.12V927.552Z" stroke="#FC8031" stroke-width="0.66" stroke-miterlimit="10"/>
<path d="M1302.69 927.552H1234.12V989.393H1302.69V927.552Z" stroke="#FC8031" stroke-width="0.66" stroke-miterlimit="10"/>
<path d="M1371.25 927.552H1302.69V989.393H1371.25V927.552Z" stroke="#FC8031" stroke-width="0.66" stroke-miterlimit="10"/>
<path d="M1439.81 927.552H1371.25V989.393H1439.81V927.552Z" stroke="#FC8031" stroke-width="0.66" stroke-miterlimit="10"/>
<path d="M68.5625 989.393H0V1051.23H68.5625V989.393Z" stroke="#FC8031" stroke-width="0.66" stroke-miterlimit="10"/>
<path d="M137.125 989.393H68.5625V1051.23H137.125V989.393Z" stroke="#FC8031" stroke-width="0.66" stroke-miterlimit="10"/>
<path d="M205.687 989.393H137.125V1051.23H205.687V989.393Z" stroke="#FC8031" stroke-width="0.66" stroke-miterlimit="10"/>
<path d="M274.25 989.393H205.687V1051.23H274.25V989.393Z" stroke="#FC8031" stroke-width="0.66" stroke-miterlimit="10"/>
<path d="M342.812 989.393H274.25V1051.23H342.812V989.393Z" stroke="#FC8031" stroke-width="0.66" stroke-miterlimit="10"/>
<path d="M411.375 989.393H342.812V1051.23H411.375V989.393Z" stroke="#FC8031" stroke-width="0.66" stroke-miterlimit="10"/>
<path d="M479.937 989.393H411.375V1051.23H479.937V989.393Z" stroke="#FC8031" stroke-width="0.66" stroke-miterlimit="10"/>
<path d="M548.5 989.393H479.937V1051.23H548.5V989.393Z" stroke="#FC8031" stroke-width="0.66" stroke-miterlimit="10"/>
<path d="M617.062 989.393H548.5V1051.23H617.062V989.393Z" stroke="#FC8031" stroke-width="0.66" stroke-miterlimit="10"/>
<path d="M685.625 989.393H617.062V1051.23H685.625V989.393Z" stroke="#FC8031" stroke-width="0.66" stroke-miterlimit="10"/>
<path d="M754.187 989.393H685.625V1051.23H754.187V989.393Z" stroke="#FC8031" stroke-width="0.66" stroke-miterlimit="10"/>
<path d="M822.75 989.393H754.187V1051.23H822.75V989.393Z" stroke="#FC8031" stroke-width="0.66" stroke-miterlimit="10"/>
<path d="M891.312 989.393H822.75V1051.23H891.312V989.393Z" stroke="#FC8031" stroke-width="0.66" stroke-miterlimit="10"/>
<path d="M959.875 989.393H891.312V1051.23H959.875V989.393Z" stroke="#FC8031" stroke-width="0.66" stroke-miterlimit="10"/>
<path d="M1028.44 989.393H959.875V1051.23H1028.44V989.393Z" stroke="#FC8031" stroke-width="0.66" stroke-miterlimit="10"/>
<path d="M1097 989.393H1028.44V1051.23H1097V989.393Z" stroke="#FC8031" stroke-width="0.66" stroke-miterlimit="10"/>
<path d="M1165.56 989.393H1097V1051.23H1165.56V989.393Z" stroke="#FC8031" stroke-width="0.66" stroke-miterlimit="10"/>
<path d="M1234.12 996.234H1165.56V1058.08H1234.12V996.234Z" stroke="#FC8031" stroke-width="0.66" stroke-miterlimit="10"/>
<path d="M1302.69 989.393H1234.12V1051.23H1302.69V989.393Z" stroke="#FC8031" stroke-width="0.66" stroke-miterlimit="10"/>
<path d="M1371.25 989.393H1302.69V1051.23H1371.25V989.393Z" stroke="#FC8031" stroke-width="0.66" stroke-miterlimit="10"/>
<path d="M1439.81 989.393H1371.25V1051.23H1439.81V989.393Z" stroke="#FC8031" stroke-width="0.66" stroke-miterlimit="10"/>
</g>
</g>
<defs>
<clipPath id="clip0_61_1199">
<rect width="1440" height="1051.78" fill="white"/>
</clipPath>
</defs>
</svg>
