<svg width="350" height="123" viewBox="0 0 350 123" fill="none" xmlns="http://www.w3.org/2000/svg">
<path d="M52.75 54.1057C52.75 53.6098 60.0023 35.2431 63.6113 26.2992C63.7994 25.8032 64.2099 25.6664 66.5703 25.6664C66.8611 25.6664 67.0322 25.8032 67.169 26.0084C70.8806 35.2602 78.3039 53.4559 78.3039 53.986C78.3039 54.3622 76.4909 54.6872 75.3449 54.6872C75.0199 54.6872 74.8488 54.5503 74.7462 54.1741L71.3083 45.196L71.1372 44.6659L64.706 27.462H66.0572L59.6602 44.529L59.472 45.0763L56.0854 54.2083C55.9656 54.5675 55.7604 54.67 55.5551 54.67C54.8881 54.67 52.7671 54.3451 52.7671 54.0886L52.75 54.1057ZM58.0695 43.8279L72.574 43.7082V46.2734L58.0695 46.3931V43.8279Z" fill="#327BCA"/>
<path d="M83.5038 54.0202C83.5038 50.8565 83.5722 47.5217 83.5722 44.1699C83.5722 38.27 83.384 36.3547 83.384 34.3196C83.384 33.7553 83.7261 33.5843 86.1549 33.5843C86.4457 33.5843 86.5997 33.7724 86.5997 34.046C86.5997 37.3465 86.5997 40.7668 86.5997 44.1699C86.5997 47.573 86.6681 50.6684 86.6681 53.7295C86.6681 54.2596 86.2062 54.5161 84.034 54.5161C83.7261 54.5161 83.538 54.328 83.538 54.0031L83.5038 54.0202ZM93.4414 33.3449C95.2031 33.3449 95.4768 33.5501 95.4768 34.0289C95.4768 35.5167 95.3913 36.406 94.7755 36.406C94.6216 36.406 94.3308 36.3376 93.7835 36.3376C90.7389 36.3376 88.2246 37.5005 86.1378 40.2709L86.0865 38.441C87.318 35.6706 90.3113 33.3449 93.4414 33.3449Z" fill="#327BCA"/>
<path d="M98.0425 36.2521C98.0425 34.6445 98.1622 33.9092 98.6582 33.9092H112.855C113.077 33.9092 113.231 34.1144 113.231 34.4051C113.231 35.739 113.146 36.7138 112.65 36.7138C111.452 36.7138 109.058 36.6112 104.303 36.6112C101.344 36.6112 99.4279 36.7138 98.4359 36.7138C98.2135 36.7138 98.0596 36.4915 98.0596 36.2521H98.0425ZM102.353 49.4542C102.353 42.5111 102.421 36.1153 102.421 29.2064C102.421 28.6249 103.037 28.4539 105.192 28.4539C105.466 28.4539 105.637 28.6591 105.637 28.9156C105.637 30.2837 105.517 32.4727 105.517 35.1063C105.517 39.6552 105.397 44.187 105.397 48.7873C105.397 50.8394 106.407 51.7115 108.835 51.7115C110.512 51.7115 112.171 51.1301 112.684 51.1301C113.111 51.1301 113.334 52.2759 113.334 53.2507C113.334 53.5756 113.214 53.7466 112.735 53.9347C111.333 54.4477 109.605 54.6359 108.049 54.6359C104.268 54.6359 102.37 53.0796 102.37 49.4542H102.353Z" fill="#327BCA"/>
<path d="M128.471 47.6928C128.471 44.512 129.993 41.8613 134.629 38.4752L136.459 40.1682C132.884 42.7334 131.464 44.8882 131.464 47.3849C131.464 50.2408 133.175 51.8826 136.031 51.8826C138.888 51.8826 140.94 50.7539 143.489 47.5047L145.387 49.3858C142.65 52.9941 139.589 54.8069 136.082 54.8069C131.55 54.8069 128.471 52.6521 128.471 47.6928ZM134.748 40.134C132.781 38.1161 131.259 36.3034 131.259 33.0541C131.259 27.8554 135.313 25.3244 140.359 25.3244C142.377 25.3244 143.796 25.5467 145.028 26.0427C145.336 26.1795 145.439 26.3505 145.439 26.6583C145.439 27.6331 144.942 28.7446 144.532 28.7446C143.95 28.7446 142.924 28.1461 140.512 28.1461C136.715 28.1461 134.577 29.7536 134.577 32.9344C134.577 35.2602 135.415 36.3889 137.519 38.5265C144.583 45.8629 151.75 52.1391 151.75 52.5837C151.75 53.2164 150.057 54.9266 149.578 54.9266C148.894 54.9266 140.632 46.1195 134.765 40.134H134.748ZM148.62 33.3278C148.979 33.3278 151.168 34.6446 151.168 34.9866C151.168 35.3457 149.27 37.8596 143.968 46.034L141.915 44.3238C146.602 36.4231 148.432 33.3278 148.62 33.3278Z" fill="#327BCA"/>
<path d="M168.256 53.6953C168.256 50.7881 168.341 46.5641 168.341 40.1512C168.341 33.7382 168.136 27.9409 168.136 26.5386C168.136 25.9058 168.786 25.769 171.163 25.769C171.488 25.769 171.642 25.9059 171.642 26.2137C171.642 27.9238 171.557 34.1657 171.557 40.1682C171.557 44.2212 171.608 48.2742 171.677 52.2417L170.804 51.4037C176.278 51.4037 179.887 51.2327 183.427 51.2327C183.684 51.2327 183.872 51.4208 183.872 51.6603C183.872 53.3191 183.735 54.2425 183.119 54.2425H168.82C168.478 54.2425 168.273 54.0202 168.273 53.6782L168.256 53.6953Z" fill="#327BCA"/>
<path d="M187.721 49.6081C187.721 45.025 191.877 42.7847 202.294 41.2627L202.328 43.4346C193.382 44.5975 190.628 46.3247 190.628 49.0096C190.628 51.1814 192.253 52.1049 194.819 52.1049C197.385 52.1049 199.471 50.9933 202.071 49.078L202.259 51.0104C199.831 53.0454 197.385 54.7043 193.878 54.7043C190.372 54.7043 187.704 53.1481 187.704 49.6081H187.721ZM201.541 51.8313L201.456 50.5487C201.456 47.7783 201.456 44.4435 201.456 40.4761C201.456 37.0558 199.95 35.9785 196.701 35.9785C192.613 35.9785 189.688 38.0648 189.14 38.0648C188.781 38.0648 188.525 37.3807 188.525 36.064C188.525 35.8074 188.593 35.6193 188.85 35.4483C191.124 34.0973 193.964 33.2252 197.145 33.2252C201.866 33.2252 204.397 34.9866 204.397 39.4842C204.397 43.7424 204.449 48.3426 204.534 52.8573L203.559 52.0023C205.355 51.9339 207.014 51.3182 207.322 51.3182C207.664 51.3182 207.972 52.2246 207.972 53.3362C207.972 53.5243 207.887 53.7466 207.493 53.9176C206.245 54.4649 205.013 54.653 204.004 54.653C202.277 54.653 201.49 53.6098 201.49 51.8313H201.541Z" fill="#327BCA"/>
<path d="M210.093 34.1315C210.093 33.7553 212.3 33.4817 213.001 33.4817C213.223 33.4817 213.428 33.5843 213.582 34.0118C215.789 40.2708 218.183 46.7864 220.817 53.1822L219.09 55.7132C215.327 47.1968 210.11 34.6788 210.11 34.1315H210.093ZM210.88 62.3485C210.555 62.2801 210.435 62.1091 210.435 61.7328C210.435 60.4503 210.743 59.7833 211.188 59.7833C211.632 59.7833 212.282 59.9543 213.48 59.9543C215.857 59.9543 216.969 59.219 218.628 55.4054L219.415 53.1309C221.724 46.9574 224.221 40.3906 226.462 33.9092C226.565 33.5843 226.718 33.4475 226.992 33.4475C228.155 33.4475 229.626 33.6527 229.626 33.9434C229.626 34.4564 224.221 48.3084 221.006 56.0039C219.022 60.9291 217.226 62.6905 213.617 62.6905C212.436 62.6905 211.444 62.5024 210.88 62.3314V62.3485Z" fill="#327BCA"/>
<path d="M233.064 44.5291C233.064 36.9874 237.323 33.2252 243.378 33.2252C249.433 33.2252 253.059 36.6112 253.059 43.5372C253.059 51.1472 248.869 54.8924 242.814 54.8924C236.759 54.8924 233.081 51.4721 233.081 44.5461L233.064 44.5291ZM249.929 43.9989C249.929 38.0135 247.124 35.7732 243.036 35.7732C238.948 35.7732 236.16 38.3555 236.16 43.9818C236.16 50.0698 239.085 52.2417 243.156 52.2417C247.227 52.2417 249.929 49.6423 249.929 43.9989Z" fill="#327BCA"/>
<path d="M259.285 48.4965C259.285 42.2033 259.131 38.1674 259.131 34.3538C259.131 33.7382 259.508 33.6014 261.954 33.6014C262.244 33.6014 262.398 33.7553 262.398 34.0631C262.398 38.099 262.398 42.5453 262.398 47.2824C262.398 50.4974 264.314 51.9168 267.41 51.9168C270.027 51.9168 271.977 51.0788 274.833 49.2832L274.902 51.2156C272.302 53.3704 269.548 54.6701 265.956 54.6701C262.039 54.6701 259.302 52.6692 259.302 48.5307L259.285 48.4965ZM273.67 54.0202C273.67 50.8565 273.738 47.5218 273.738 44.1699C273.738 38.5094 273.55 36.3547 273.55 34.3196C273.55 33.7553 273.91 33.5843 276.321 33.5843C276.612 33.5843 276.749 33.7724 276.749 34.046C276.749 37.2439 276.749 40.7668 276.749 44.1699C276.749 47.5731 276.817 50.6684 276.817 53.7295C276.817 54.2596 276.373 54.5161 274.166 54.5161C273.858 54.5161 273.67 54.328 273.67 54.0031V54.0202Z" fill="#327BCA"/>
<path d="M281.709 36.2521C281.709 34.6445 281.829 33.9092 282.325 33.9092H296.522C296.744 33.9092 296.898 34.1144 296.898 34.4051C296.898 35.739 296.812 36.7138 296.316 36.7138C295.119 36.7138 292.724 36.6112 287.969 36.6112C285.01 36.6112 283.095 36.7138 282.103 36.7138C281.88 36.7138 281.726 36.4915 281.726 36.2521H281.709ZM286.037 49.4542C286.037 42.5111 286.105 36.1153 286.105 29.2064C286.105 28.6249 286.721 28.4539 288.876 28.4539C289.15 28.4539 289.321 28.6591 289.321 28.9156C289.321 30.2837 289.201 32.4727 289.201 35.1063C289.201 39.6552 289.081 44.187 289.081 48.7873C289.081 50.8394 290.09 51.7115 292.519 51.7115C294.195 51.7115 295.855 51.1301 296.368 51.1301C296.795 51.1301 297.018 52.2759 297.018 53.2507C297.018 53.5756 296.898 53.7466 296.419 53.9347C295.016 54.4477 293.289 54.6359 291.732 54.6359C287.952 54.6359 286.054 53.0796 286.054 49.4542H286.037Z" fill="#327BCA"/>
<path d="M307.62 0.75H41.8005C19.1372 0.75 0.75 19.1167 0.75 41.7929C0.75 64.4691 19.1201 82.8357 41.8005 82.8357H145.795L189.788 122.186V82.8357H307.602C330.266 82.8357 348.653 64.4691 348.653 41.7929C348.653 19.1167 330.283 0.75 307.602 0.75H307.62Z" stroke="#327BCA" stroke-width="1.5" stroke-linejoin="round"/>
</svg>
