<svg width="993" height="169" viewBox="0 0 993 169" fill="none" xmlns="http://www.w3.org/2000/svg">
<path d="M62.431 122.188H35.7994V152.372H0V4.85669H62.6875C82.5799 4.85669 96.0753 19.3243 96.0753 58.5545V70.303C96.0753 101.222 85.9495 122.188 62.4481 122.188H62.431ZM60.0192 63.0692C60.0192 54.2108 58.0864 53.1163 52.7841 53.1163H35.7823V73.3641H52.7841C57.9667 73.3641 60.0192 71.1923 60.0192 64.6938V63.0692Z" fill="#FBF5E9"/>
<path d="M293.87 152.372V125.608C293.87 118.203 291.698 114.937 286.635 114.937H272.781V152.354H236.023V4.8396H297.017C317.868 4.8396 330.285 16.4171 330.285 57.0837V65.7541C330.285 77.5026 327.993 86.7201 323.769 93.5948C328.712 99.204 330.525 108.062 330.525 120.717V152.354H293.887L293.87 152.372ZM294.469 63.0692C294.469 56.0235 292.536 53.4925 287.234 53.4925H272.763V73.0221H287.234C292.656 73.0221 294.469 69.2256 294.469 64.7109V63.0863V63.0692Z" fill="#FC8031"/>
<path d="M416.714 52.9453V152.372H379.957V52.9453H349.22V4.85669H445.774V52.9453H416.731H416.714Z" fill="#FBF5E9"/>
<path d="M507.47 53.4925C500.115 53.4925 498.678 57.289 498.678 67.4129V68.8665H553.771V111.175H498.678V152.389H462.759V68.3192C462.759 25.6517 474.698 4.87378 500.012 4.87378H556.662V53.5096H507.487L507.47 53.4925Z" fill="#FBF5E9"/>
<path d="M631.391 153.09H618.734C584.012 153.09 575.938 139.358 575.938 89.6273V67.3958C575.938 17.8536 584.012 3.95032 618.734 3.95032H631.391C663.581 3.95032 674.665 17.8707 674.665 67.3958V89.6273C674.665 139.34 665.993 153.09 631.391 153.09ZM638.746 68.3192C638.746 58.0072 636.214 51.3206 627.423 51.3206H622.719C615.604 51.3206 611.396 55.4762 611.396 68.3192V87.8488C611.396 100.504 613.927 105.018 622.719 105.018H627.423C636.214 105.018 638.746 97.9727 638.746 87.8488V68.3192Z" fill="#FBF5E9"/>
<path d="M171.642 153.09H158.985C124.263 153.09 116.19 139.358 116.19 89.6273V67.3958C116.19 17.8536 124.263 3.95032 158.985 3.95032H171.642C203.833 3.95032 214.916 17.8707 214.916 67.3958V89.6273C214.916 139.34 206.244 153.09 171.642 153.09ZM178.997 68.3192C178.997 58.0072 176.466 51.3206 167.674 51.3206H162.97C155.855 51.3206 151.647 55.4762 151.647 68.3192V87.8488C151.647 100.504 154.179 105.018 162.97 105.018H167.674C176.466 105.018 178.997 97.9727 178.997 87.8488V68.3192Z" fill="#FBF5E9"/>
<path d="M733.247 152.372C707.214 152.372 694.318 133.389 694.318 97.7846V4.85669H731.332V91.4572C731.332 98.691 734.342 103.924 740.38 103.924H788.477V152.372H733.264H733.247Z" fill="#327BCA"/>
<path d="M812.081 152.372V4.85669H849.215V152.372H812.081Z" fill="#FBF5E9"/>
<path d="M926.989 159.503L914.417 158.032C879.934 154.013 873.503 139.443 879.25 90.0548L881.816 67.9601C887.546 18.76 897.176 5.86563 931.658 9.88441L944.23 11.3551C976.198 15.0832 985.605 30.1836 979.875 79.3837L977.31 101.478C971.563 150.867 961.351 163.504 926.989 159.503ZM944.11 76.1345C945.307 65.908 943.563 58.9649 934.822 57.9388L930.153 57.3915C923.089 56.5707 918.419 60.2132 916.931 72.9536L914.673 92.3464C913.202 104.916 915.204 109.704 923.944 110.713L928.613 111.26C937.354 112.286 940.689 105.566 941.852 95.5101L944.11 76.1174V76.1345Z" fill="#FBF5E9"/>
<path d="M987.299 16.2831L889.235 4.86938L872.069 152.295L970.133 163.709L987.299 16.2831Z" stroke="#FC8031" stroke-width="0.75" stroke-miterlimit="10"/>
<path d="M991.753 12.761L983.75 11.8297L982.819 19.8303L990.821 20.7617L991.753 12.761Z" fill="white" stroke="#FC8031" stroke-width="0.75" stroke-miterlimit="10"/>
<path d="M893.688 1.3472L885.686 0.415833L884.754 8.41645L892.757 9.34782L893.688 1.3472Z" fill="white" stroke="#FC8031" stroke-width="0.75" stroke-miterlimit="10"/>
<path d="M974.58 160.175L966.578 159.243L965.646 167.244L973.648 168.175L974.58 160.175Z" fill="white" stroke="#FC8031" stroke-width="0.75" stroke-miterlimit="10"/>
<path d="M876.53 148.778L868.528 147.847L867.597 155.847L875.599 156.779L876.53 148.778Z" fill="white" stroke="#FC8031" stroke-width="0.75" stroke-miterlimit="10"/>
<path d="M983.515 83.5854L975.513 82.6541L974.582 90.6547L982.584 91.586L983.515 83.5854Z" fill="white" stroke="#FC8031" stroke-width="0.75" stroke-miterlimit="10"/>
<path d="M885.451 72.1545L877.448 71.2231L876.517 79.2238L884.519 80.1551L885.451 72.1545Z" fill="white" stroke="#FC8031" stroke-width="0.75" stroke-miterlimit="10"/>
</svg>
