<svg width="337" height="114" viewBox="0 0 337 114" fill="none" xmlns="http://www.w3.org/2000/svg">
<path d="M4.41162 107.333C23.5514 96.7641 52.4236 85.3063 86.2218 90.83C113.572 95.3105 123.92 107.589 145.625 109.316C184.88 112.429 195.485 59.1072 238.639 51.7537C256.393 48.7268 271.36 53.6007 280.374 57.5511" stroke="#FC8031" stroke-width="0.75" stroke-miterlimit="10"/>
<path d="M8.4312 102.356H0.375V110.411H8.4312V102.356Z" fill="white" stroke="#FC8031" stroke-width="0.75" stroke-miterlimit="10"/>
<path d="M69.3911 85.8877H61.335V93.9424H69.3911V85.8877Z" fill="white" stroke="#FC8031" stroke-width="0.75" stroke-miterlimit="10"/>
<path d="M153.1 105.417H145.044V113.472H153.1V105.417Z" fill="white" stroke="#FC8031" stroke-width="0.75" stroke-miterlimit="10"/>
<path d="M283.743 52.985H275.687V61.0397H283.743V52.985Z" fill="white" stroke="#FC8031" stroke-width="0.75" stroke-miterlimit="10"/>
<path d="M321.441 41.4931L294.245 54.5926H289.542L286.925 51.959L303.071 35.6274C304.32 36.3456 305.979 36.1404 307.057 35.063C308.374 33.7462 308.374 31.6256 307.057 30.3089C305.74 28.9921 303.601 28.975 302.284 30.3089C301.207 31.3862 301.019 33.028 301.72 34.2935L285.385 50.437L282.768 47.8205V43.1177L295.853 15.9268L310.648 9.41119L327.975 26.7347L321.441 41.5102V41.4931Z" fill="#FC8031"/>
<path d="M336.851 17.3163L319.531 0L314.101 5.42946L331.42 22.7457L336.851 17.3163Z" fill="#FC8031"/>
</svg>
